P2
100  100
240
64 64 74 146 147 147 145 135 116 140 115 68
65 67 69 83 115 86 63 63 64 64 66 68
68 68 68 65 63 48 58 65 66 65 65 67
54 37 50 67 67 64 64 63 76 110 115 118
102 65 25 0 0 1 31 70 209 240 174 68
58 133 218 182 197 216 153 73 68 68 102 175
162 147 147 147 147 140 140 74 66 89 146 75
25 57 67 62 65 68 16 0 0 0 0 0
0 0 0 0
64 64 72 133 147 147 133 94
72 86 76 65 67 67 68 76 81 68 64 64
64 64 67 68 68 68 68 65 63 58 50 65
67 65 63 66 51 30 62 67 67 65 64 63
78 91 66 93 116 52 12 0 0 9 57 123
234 186 90 60 127 194 229 219 202 166 99 68
68 68 99 184 164 147 147 147 147 120 134 79
87 88 100 56 33 17 38 58 68 67 14 0
0 0 0 0 0 0 0 0
66 66 66 96
128 146 140 107 68 65 64 64 65 64 67 68
66 64 64 64 64 65 68 68 68 68 67 64
64 62 45 63 66 65 63 67 40 41 67 66
65 64 65 65 68 70 87 72 71 23 3 0
2 26 116 191 198 104 62 81 97 198 240 236
219 170 145 138 76 69 97 186 173 148 127 114
103 89 110 91 82 72 73 61 34 3 9 46
67 55 17 12 0 0 0 0 0 0 0 0
65 66 66 81 123 115 105 130 78 65 64 66
65 63 67 68 65 64 64 63 64 67 68 68
68 64 64 64 64 64 52 44 63 64 64 68
43 59 92 93 63 69 87 91 102 113 95 63
49 7 0 0 20 97 204 234 185 60 100 165
180 197 238 227 201 172 192 238 91 68 91 195
212 153 147 140 86 65 65 77 98 83 69 65
9 0 2 43 57 9 27 25 0 0 0 0
0 0 0 0
64 65 68 72 98 120 96 83
68 67 82 78 66 65 65 66 64 64 64 63
65 68 68 68 68 64 63 64 64 64 54 47
67 64 66 56 48 67 122 146 121 75 66 107
130 100 64 60 37 2 0 7 86 194 239 235
133 70 190 207 201 219 229 185 144 134 167 216
69 68 77 167 176 147 147 140 88 67 68 107
144 100 72 68 17 0 1 29 44 0 18 41
11 0 0 0 0 0 0 0
65 65 67 65
76 120 119 82 63 67 78 76 65 65 64 64
64 64 64 64 66 68 68 68 68 66 65 64
64 65 50 48 67 65 67 42 54 76 131 147
142 85 66 99 105 80 84 53 19 0 0 18
107 188 236 203 96 140 210 214 203 216 230 170
150 177 185 198 71 68 71 127 149 147 147 138
88 69 68 113 146 104 80 85 37 0 0 9
21 0 19 54 28 4 0 0 0 0 0 0
66 64 64 64 64 85 101 78 63 65 66 64
64 64 63 64 64 64 63 66 68 68 68 68
68 68 67 65 65 67 43 43 62 68 68 37
62 81 129 144 138 79 76 111 91 88 110 41
3 0 0 16 106 188 226 137 72 192 214 223
236 236 187 118 133 181 169 207 107 73 71 118
143 135 145 147 107 75 68 117 149 120 109 127
70 0 0 0 1 0 23 59 38 8 0 0
0 0 0 0
68 65 63 64 67 100 120 88
63 64 65 64 64 63 66 66 65 64 64 68
68 68 68 68 68 68 68 67 66 68 46 35
50 67 68 27 67 81 93 110 146 106 100 88
81 102 62 11 0 0 0 20 120 210 173 82
134 210 199 203 220 160 125 67 70 139 156 186
183 95 87 135 122 91 126 145 133 91 68 129
147 122 104 108 56 0 0 0 0 0 11 42
38 8 0 0 0 0 0 0
68 67 64 63
72 111 102 77 64 63 64 63 64 65 68 68
68 67 65 67 68 68 68 68 68 68 68 68
67 68 46 53 54 51 46 19 67 75 82 81
106 89 84 69 95 98 39 1 0 0 0 87
146 186 127 76 176 233 199 212 197 95 130 77
27 87 124 155 133 85 98 157 167 146 165 149
153 118 67 131 147 121 84 75 44 0 0 0
0 0 3 23 45 14 0 0 0 0 0 0
68 67 63 64 67 72 70 67 65 63 64 64
64 66 68 68 68 68 68 68 68 68 68 68
68 68 68 68 68 68 42 58 67 62 47 59
87 105 66 65 67 65 64 64 96 88 9 0
0 0 9 168 232 211 83 109 225 234 214 238
213 163 182 53 5 62 148 140 66 66 83 166
182 197 151 148 127 87 66 93 138 122 80 66
26 0 0 0 0 0 0 5 18 7 0 0
0 0 0 5
67 65 63 66 68 68 68 67
64 64 68 82 75 65 69 69 68 68 68 68
68 68 68 68 68 68 68 68 68 68 46 45
68 68 68 68 71 73 64 64 69 87 71 64
68 68 18 0 0 1 41 173 224 213 112 137
201 113 228 240 227 212 212 125 116 147 161 146
154 176 157 165 159 175 156 144 122 83 65 66
86 123 100 94 64 0 0 0 0 0 0 0
0 0 0 0 0 0 0 25
64 63 64 68
68 68 68 68 64 64 65 85 85 64 68 68
68 68 68 68 68 68 68 68 68 68 68 68
67 54 46 58 68 68 68 68 68 66 64 64
86 116 103 76 74 70 7 0 0 8 79 184
212 206 125 144 167 98 217 235 214 192 207 171
160 151 147 146 183 166 160 159 149 157 157 152
144 95 64 64 81 134 135 114 102 4 0 0
0 0 0 0 0 0 0 0 0 0 0 34
63 63 66 68 68 68 68 68 64 64 64 64
68 65 68 68 68 68 68 68 68 68 68 68
68 68 68 68 67 16 60 68 68 68 68 68
68 66 64 66 116 131 149 132 97 59 1 0
10 73 151 235 220 201 92 70 41 152 211 201
163 176 172 150 148 160 167 111 223 188 148 147
147 141 143 146 113 81 65 68 87 138 147 135
128 18 0 0 0 0 0 0 0 0 0 0
0 0 0 13
63 63 64 67 68 68 68 66
63 64 64 65 65 67 68 68 68 68 68 68
68 68 68 68 68 68 68 68 68 23 65 68
68 66 65 68 66 64 66 73 109 134 121 112
99 42 0 1 34 133 187 215 209 204 84 54
93 181 198 190 161 173 182 154 149 188 193 83
176 172 131 148 151 120 93 144 117 77 55 68
74 111 139 145 99 32 25 3 0 0 0 0
0 0 0 0 0 0 0 3
63 63 64 64
66 68 67 64 63 63 63 64 66 68 68 68
68 68 68 68 68 68 68 68 68 68 68 68
68 37 49 68 68 42 20 51 63 63 97 131
146 111 71 65 48 13 0 2 53 188 208 132
228 230 134 76 122 136 189 196 168 171 193 194
178 195 172 80 81 94 104 165 187 180 113 145
134 86 28 68 73 116 142 142 80 71 70 14
0 0 0 0 0 0 0 0 0 0 0 3
63 63 64 62 58 59 63 63 64 64 63 64
65 68 68 68 68 68 68 68 68 68 68 68
68 68 68 68 68 63 29 55 54 14 6 41
63 72 128 147 146 85 65 56 21 2 0 42
137 217 158 106 205 227 123 69 71 157 190 162
134 163 185 180 193 167 165 119 74 85 90 143
147 137 90 133 143 85 38 68 68 76 118 143
134 93 87 47 20 0 0 0 0 0 0 0
0 2 11 30
64 63 64 60 60 64 64 64
65 66 64 64 66 68 68 68 68 68 68 68
68 68 68 68 68 68 68 68 68 68 29 32
25 3 21 66 67 82 138 147 145 87 68 36
8 0 0 89 174 194 143 148 187 207 121 70
90 182 166 124 134 184 215 186 148 125 158 115
54 54 67 118 138 128 82 105 140 68 41 68
69 86 121 142 123 75 63 61 43 0 0 0
0 0 0 0 1 12 43 59
64 64 63 59
62 64 64 64 65 65 65 67 68 68 68 68
68 68 68 68 68 68 68 68 68 68 68 68
68 63 10 8 1 15 49 100 116 115 145 147
132 77 50 13 1 0 25 155 209 191 170 210
190 197 136 78 124 193 185 152 127 163 191 126
81 94 111 79 66 62 52 63 98 134 97 63
82 32 46 68 65 78 79 58 40 27 38 36
14 0 0 0 0 0 0 0 3 28 67 68
65 64 63 60 65 64 64 64 64 64 66 68
68 68 68 68 68 68 68 68 68 68 68 68
68 65 62 54 55 40 1 1 2 36 72 135
144 135 141 147 97 63 41 5 0 0 88 164
188 168 159 180 186 189 117 70 157 205 195 199
127 139 118 80 68 74 78 70 68 68 58 28
32 62 124 81 31 8 30 65 47 22 16 5
0 2 13 25 25 7 0 0 0 0 0 0
1 24 67 67
65 63 63 60 66 66 65 64
64 65 67 68 68 68 68 68 68 68 68 68
68 68 57 43 34 31 32 31 26 10 0 0
9 57 104 146 145 125 117 133 70 52 22 2
0 19 144 184 178 186 191 151 153 156 107 47
94 149 204 224 129 82 34 57 53 57 65 68
68 68 63 21 4 12 139 123 36 2 9 58
35 1 0 0 0 0 2 8 19 36 19 2
0 0 0 0 0 19 63 67
64 64 63 61
64 67 68 67 64 67 68 68 68 68 68 68
68 68 68 68 68 55 15 31 61 65 68 68
67 28 0 3 28 97 136 147 134 95 75 115
62 22 3 0 5 80 189 181 121 219 200 141
103 139 100 47 3 27 99 151 94 50 2 1
0 1 32 68 68 68 59 14 0 0 37 47
15 2 0 4 5 0 0 0 0 0 0 0
0 4 20 3 0 0 0 0 0 1 33 61
124 91 63 62 64 64 65 65 64 67 68 68
68 68 68 68 68 68 68 63 55 35 50 65
65 65 67 68 62 15 2 20 69 133 147 147
132 95 79 103 18 0 0 1 59 144 235 221
184 201 220 189 207 182 183 133 16 51 25 30
47 26 0 0 0 1 2 11 8 20 23 2
0 0 0 0 0 0 0 0 0 0 6 17
6 0 0 0 0 0 0 0 0 0 0 0
0 0 2 14
138 96 63 62 64 65 66 65
64 68 68 68 68 68 68 68 68 68 62 39
38 41 65 67 64 66 68 66 41 0 7 42
100 143 147 147 146 136 107 91 5 0 0 16
106 191 231 225 161 115 170 236 221 199 202 167
30 68 47 20 15 6 0 0 0 24 40 8
1 0 0 0 0 0 0 0 2 2 10 0
1 11 30 51 34 15 10 10 11 3 0 0
0 0 0 0 0 0 0 3
84 70 60 64
67 67 67 65 65 68 68 68 68 68 68 68
68 67 21 5 41 71 80 70 66 68 68 66
44 13 25 82 131 147 147 147 147 147 135 77
4 0 3 75 175 228 200 165 88 68 110 224
202 194 156 79 26 68 67 51 7 0 0 0
2 81 131 99 57 22 0 0 0 0 11 34
42 41 55 4 3 40 61 63 64 58 53 62
87 66 3 0 0 0 0 0 0 0 0 6
65 62 58 67 68 69 68 67 67 68 68 68
68 68 68 68 68 60 2 12 60 70 87 77
66 68 68 68 63 39 45 79 114 146 149 148
166 153 115 42 0 0 21 129 211 238 223 123
70 76 138 205 181 196 93 32 36 68 64 42
4 0 0 0 4 91 141 143 125 89 28 0
0 0 24 85 103 92 70 11 12 52 63 64
64 64 64 69 98 86 7 5 6 3 0 0
0 0 0 4
78 60 65 68 68 68 68 68
68 68 68 68 68 68 68 68 68 41 12 56
68 68 66 64 63 66 68 68 68 27 66 70
95 144 176 172 167 169 71 12 0 8 69 206
236 240 206 73 68 130 166 232 228 198 49 49
68 68 43 5 0 0 0 0 0 34 115 147
147 142 97 8 0 0 40 123 147 147 100 40
44 63 65 67 65 64 64 64 64 62 54 59
86 87 13 0 0 0 0 1
72 56 63 70
74 70 68 68 68 68 68 68 68 68 68 67
48 28 61 68 68 68 67 64 66 65 67 68
51 54 82 75 94 160 160 152 135 101 21 1
0 41 137 223 234 222 102 69 84 194 232 180
174 101 42 61 67 54 28 50 25 3 0 0
0 2 22 46 68 61 34 2 0 5 73 109
137 145 130 63 63 63 70 101 86 80 74 83
86 69 68 69 105 139 118 29 0 0 0 0
62 56 64 78 97 81 69 68 68 68 68 68
68 68 67 61 28 44 68 68 68 68 65 64
65 50 54 58 37 96 110 100 110 198 185 146
98 49 6 0 0 92 195 226 206 162 68 77
124 221 238 196 100 17 25 43 51 21 58 125
85 28 0 0 1 0 0 0 0 0 0 0
0 0 34 55 115 144 124 64 64 69 85 127
130 119 107 115 117 92 77 72 112 140 117 75
4 0 0 1
55 56 64 79 108 90 70 68
68 68 68 68 68 68 65 49 44 63 68 68
68 67 64 65 53 7 10 16 39 77 95 117
144 174 167 108 44 12 0 0 29 181 234 230
182 103 68 101 186 236 240 239 101 8 12 9
13 37 113 146 144 117 25 34 31 4 0 0
0 0 0 0 0 0 2 20 115 137 94 68
68 94 129 145 144 122 123 98 85 89 98 76
127 141 90 70 27 0 0 8
47 56 76 98
121 90 70 68 68 64 48 32 48 65 63 45
54 68 68 68 68 68 66 67 46 0 0 16
49 63 112 134 147 150 140 64 13 3 0 3
92 204 238 239 156 84 68 116 191 238 240 229
110 24 81 81 69 81 140 140 142 160 66 63
76 31 1 0 0 0 0 0 0 0 0 10
105 119 74 68 71 114 142 132 116 82 83 72
68 69 80 70 96 94 71 64 40 5 0 13
52 63 78 113 86 69 68 67 68 44 5 0
1 45 64 38 44 66 68 68 68 68 68 68
40 0 2 42 62 92 146 147 147 147 114 56
3 0 4 39 152 194 185 175 96 68 76 150
192 239 240 235 73 38 169 170 147 146 147 145
138 143 137 74 84 82 23 0 0 0 0 0
0 0 0 12 92 89 68 69 86 137 146 110
65 67 66 64 65 68 67 65 64 64 64 64
57 30 0 6
61 68 74 111 89 68 59 28
52 19 0 0 0 19 65 44 36 62 68 68
68 68 68 67 24 0 12 65 80 134 150 147
143 116 79 12 0 0 17 89 165 223 200 120
74 68 137 172 226 240 240 173 60 56 70 132
148 154 147 147 147 147 147 135 140 135 43 0
26 79 95 23 2 0 0 9 55 68 68 80
119 145 123 86 69 98 73 66 68 68 89 101
84 69 64 64 64 53 11 18
128 134 143 120
77 43 15 2 0 0 0 0 0 17 66 51
35 60 68 68 68 68 68 67 26 5 29 110
143 148 161 149 123 74 33 0 0 4 46 116
151 209 182 105 79 87 161 188 233 232 188 38
53 38 111 144 167 170 169 179 167 129 107 102
118 131 76 69 100 117 147 122 52 0 0 3
36 55 59 74 110 173 161 162 114 110 72 70
67 66 97 125 106 76 71 133 85 63 44 29
140 147 147 98 56 13 1 0 0 0 0 0
0 6 54 48 40 61 68 68 68 68 68 68
47 19 57 126 147 147 146 135 102 56 20 0
1 13 84 135 174 206 187 139 106 109 147 199
226 192 121 55 37 72 134 147 176 179 199 177
165 129 59 24 56 95 107 140 137 134 147 147
106 15 0 0 10 20 28 80 115 201 227 225
156 119 78 93 82 69 94 105 95 79 87 142
109 83 78 57
137 147 131 63 28 1 0 0
0 0 0 0 0 0 12 21 54 67 68 68
68 68 68 68 67 77 122 143 156 156 125 97
68 30 7 0 4 43 132 164 215 198 163 107
86 93 165 200 206 97 73 33 50 102 136 153
170 203 184 149 147 129 65 40 98 126 135 147
149 150 147 147 145 100 28 11 16 6 2 91
114 175 229 234 180 140 126 132 107 78 119 138
123 112 97 140 135 136 115 80
145 147 98 43
8 0 0 0 0 0 0 0 0 0 4 28
64 68 68 68 68 68 68 68 75 126 145 148
185 177 88 70 49 16 3 0 13 53 123 158
204 170 132 84 70 90 205 221 172 72 67 11
64 80 103 144 156 177 155 147 147 138 76 87
138 147 152 154 158 165 147 152 158 142 92 53
51 19 6 95 123 175 224 238 175 147 146 144
127 91 99 130 137 136 74 99 131 138 92 70
147 141 72 20 0 0 0 0 0 0 0 0
0 0 17 53 68 68 68 68 68 68 68 72
125 147 147 146 150 123 71 76 43 6 0 0
26 61 97 136 117 76 69 70 98 146 217 193
83 68 37 114 170 87 108 131 112 145 169 159
158 144 79 128 167 154 174 179 190 206 155 175
220 218 140 94 68 55 67 129 193 240 240 215
148 147 147 147 147 137 113 108 82 78 106 135
111 103 78 68
117 104 68 20 0 0 0 0
0 0 0 0 0 0 18 50 52 46 43 58
68 68 74 106 146 147 144 130 131 103 114 144
120 18 0 1 50 72 133 150 94 93 117 121
141 171 162 72 39 36 47 82 102 75 80 77
69 99 98 91 99 97 128 150 159 188 205 217
220 234 218 225 233 239 195 115 68 68 69 74
108 167 191 185 147 146 140 105 81 89 131 123
102 112 114 84 67 67 81 120
110 81 68 27
0 0 0 0 0 0 0 0 0 0 8 21
14 4 0 25 68 68 93 131 147 147 147 134
119 133 154 160 116 9 0 4 59 101 175 165
134 130 158 169 174 182 49 12 22 31 60 80
69 67 67 68 68 74 88 105 100 92 145 182
170 189 215 203 231 240 238 226 216 228 189 110
69 68 68 71 85 101 123 139 144 128 94 81
70 69 92 96 88 96 109 108 70 65 84 126
119 83 67 28 0 0 0 0 0 0 0 0
0 0 0 0 0 0 0 5 68 68 93 131
145 147 147 143 141 147 147 146 109 12 0 12
83 171 226 194 147 153 186 230 220 179 15 0
12 62 88 112 71 68 66 65 64 167 198 200
178 144 152 200 193 161 185 222 232 239 233 207
205 204 148 101 68 68 68 98 133 140 125 108
90 38 7 18 23 29 64 66 66 69 67 109
84 69 110 141
103 75 67 24 1 0 0 0
15 19 13 7 3 0 0 0 0 0 1 28
68 68 75 101 106 134 147 147 147 147 147 137
85 6 0 12 102 180 228 189 147 153 190 239
217 129 2 2 26 106 128 85 68 66 66 67
75 223 216 214 163 159 194 188 183 149 164 234
239 227 192 166 169 184 177 119 69 68 68 99
134 146 145 131 71 35 15 9 9 27 64 64
67 69 66 78 76 83 127 143
68 68 54 35
44 56 61 54 22 60 68 68 68 68 63 49
18 11 46 68 68 69 75 73 73 128 116 130
147 147 159 122 27 0 0 18 97 165 217 182
153 184 218 238 184 68 0 16 51 67 81 64
63 65 68 93 165 187 199 159 80 104 155 148
135 132 148 178 172 180 189 178 159 184 193 166
99 70 68 69 79 107 125 139 143 147 121 66
64 64 68 90 139 143 83 68 70 82 113 135
61 57 41 70 69 68 68 68 61 48 68 68
68 66 35 24 45 58 81 108 104 98 120 116
128 135 99 105 122 129 126 68 11 0 0 30
177 206 211 215 158 190 217 206 149 51 0 14
54 105 80 46 51 63 68 86 125 149 188 134
71 93 107 138 112 86 121 147 154 179 191 165
195 212 181 163 126 83 68 68 68 69 70 76
88 147 141 114 100 82 73 107 145 142 87 68
68 84 121 100
49 56 89 92 80 70 68 68
55 51 68 68 68 54 24 49 63 64 85 125
140 136 105 98 117 123 80 69 71 84 78 36
6 0 2 59 195 215 189 210 189 217 212 207
145 41 0 18 77 142 107 54 49 53 68 68
77 100 136 102 68 66 69 137 130 130 145 147
147 149 152 154 164 205 164 158 141 94 68 68
69 79 95 99 97 147 146 105 77 81 73 98
127 114 83 69 68 72 76 67
75 103 127 132
106 74 68 68 43 57 68 68 67 30 34 66
67 78 71 83 125 143 106 104 93 96 70 66
74 73 44 11 2 0 8 80 169 216 195 206
211 228 224 218 171 57 0 17 72 143 119 76
62 51 61 67 68 69 85 74 68 68 87 143
147 147 147 147 147 147 149 160 153 181 196 182
157 114 69 71 84 112 138 145 140 147 146 101
84 114 73 78 85 72 68 69 68 66 64 64
141 133 84 104 88 71 68 68 22 65 68 68
59 7 48 68 69 86 123 104 138 147 133 112
117 91 101 106 116 120 87 20 1 0 15 78
119 180 199 177 198 239 230 216 181 88 0 15
58 112 130 130 92 82 70 61 59 68 68 68
68 70 96 117 143 147 147 147 147 141 137 153
152 197 202 213 169 124 70 74 103 143 147 147
147 147 138 103 91 102 77 66 64 64 68 68
70 71 66 65
140 110 69 74 70 68 68 66
24 68 68 68 58 1 51 68 68 72 122 138
147 147 133 92 108 112 137 129 122 114 64 11
1 0 13 66 89 140 175 170 210 234 225 220
196 96 0 12 52 117 142 160 139 130 86 66
37 60 68 68 68 76 107 94 117 145 147 147
147 146 158 159 138 174 211 210 168 121 66 69
82 129 145 147 147 147 141 129 125 110 78 64
63 64 67 66 74 98 112 102
110 77 68 68
68 68 68 59 32 68 68 68 46 1 57 74
77 72 128 147 147 147 135 92 67 99 146 142
106 114 19 1 0 0 5 108 135 134 154 195
181 222 236 239 182 65 0 29 67 105 122 154
148 111 68 68 51 45 68 68 91 123 147 101
91 141 147 142 110 107 148 148 122 122 148 159
161 153 143 71 68 100 137 147 147 147 147 129
93 64 64 63 63 64 64 63 72 107 147 147
73 69 68 68 68 68 68 43 7 52 45 23
12 23 61 81 132 137 147 147 147 136 83 65
64 90 134 145 147 147 51 3 0 13 75 140
147 147 173 198 216 204 213 218 164 53 10 111
127 116 133 147 139 115 77 68 67 50 66 67
107 140 147 112 88 120 137 95 107 126 127 76
91 133 146 124 101 139 174 118 82 87 123 138
146 144 132 96 93 85 99 106 83 66 64 65
82 122 147 147
67 68 68 68 68 68 68 39
0 14 7 5 27 59 63 73 127 146 143 147
146 122 69 65 64 74 96 130 144 145 31 0
0 34 153 153 147 147 192 195 231 186 200 191
106 23 33 136 152 143 147 160 149 143 89 69
68 54 63 64 101 138 147 128 96 86 120 136
147 140 88 5 24 124 140 106 77 104 112 139
116 96 119 116 126 129 119 96 97 129 147 147
117 97 85 83 83 124 147 146
68 68 68 68
68 68 68 45 0 0 0 18 50 64 68 90
136 137 92 127 138 103 86 77 64 55 51 71
115 119 10 0 0 35 126 148 161 161 178 198
222 219 204 154 58 7 85 159 208 165 152 169
148 129 82 69 68 64 65 68 107 140 147 125
96 67 93 122 135 142 95 8 20 113 133 111
91 78 66 109 134 128 140 147 165 134 143 137
107 139 153 150 146 148 140 137 108 131 147 143
68 68 68 68 68 68 68 53 1 0 1 31
57 64 75 95 140 142 98 121 117 77 74 68
45 25 15 21 41 36 2 0 0 67 132 153
210 204 189 179 150 166 134 75 21 5 146 185
205 183 178 175 170 137 69 67 69 71 82 92
110 143 148 131 104 70 74 82 114 137 96 43
73 102 94 108 129 109 67 95 137 124 98 136
214 153 147 147 142 155 184 169 147 144 130 118
134 145 147 145
68 68 68 68 68 68 68 67
9 0 0 27 56 73 133 121 130 147 147 147
85 64 56 28 0 0 0 0 0 0 0 0
2 78 136 174 232 185 42 2 0 0 0 1
8 22 160 196 173 195 197 179 183 160 77 71
72 121 168 163 196 202 157 152 117 74 75 84
109 127 106 93 78 65 78 71 69 68 68 166
164 138 96 85 155 147 148 150 187 162 154 154
119 90 84 136 145 141 131 128
68 68 68 68
68 68 68 64 7 0 0 12 49 126 146 147
147 147 146 144 97 54 15 2 0 0 0 0
0 0 0 0 1 32 76 68 124 64 6 30
91 82 55 46 23 36 99 194 203 217 205 194
211 195 142 121 178 178 188 202 218 207 189 153
139 138 144 147 144 135 128 125 100 100 120 82
68 69 87 167 167 147 137 131 147 150 163 147
120 94 95 109 126 117 81 82 118 102 98 110
59 64 68 68 68 68 68 53 1 0 0 5
61 146 147 147 147 143 121 115 78 43 3 0
0 0 0 1 3 0 0 0 0 4 28 42
18 2 9 72 145 123 108 80 46 45 67 125
181 222 218 152 170 170 154 154 194 199 212 214
199 205 204 155 146 149 140 126 118 98 83 78
74 78 101 88 78 86 128 147 147 144 130 126
141 135 133 106 59 31 98 141 147 145 100 70
92 104 139 145
46 37 47 68 68 68 58 27
0 0 2 45 117 147 147 141 123 102 71 69
64 42 8 1 0 0 0 1 3 0 0 0
0 0 1 3 0 0 47 161 134 103 140 131
96 75 69 86 145 180 181 161 166 151 150 148
151 169 166 179 165 152 152 153 147 147 111 74
71 68 68 68 70 83 106 125 130 137 147 147
147 119 86 75 112 91 77 65 76 114 141 147
147 147 106 65 80 95 137 147
62 54 43 43
64 68 46 13 0 0 8 55 99 145 145 125
83 73 68 68 62 41 12 11 2 0 0 0
0 0 0 0 0 0 0 0 0 6 93 168
125 86 133 163 166 140 123 105 134 162 153 154
187 200 178 159 147 148 158 185 194 188 152 141
131 112 87 68 68 68 70 95 115 128 138 143
147 147 147 147 147 128 113 116 132 123 115 92
118 146 147 147 147 136 76 64 91 125 143 147
68 68 61 37 47 59 27 4 0 0 17 58
91 119 145 128 77 68 68 68 58 28 4 10
25 1 1 1 0 0 0 0 0 0 0 0
0 15 109 153 139 91 133 135 132 144 169 139
163 171 149 177 165 174 163 153 147 147 157 172
188 191 157 105 96 78 71 68 68 68 71 114
142 147 147 147 147 147 147 147 147 144 142 145
147 146 143 133 142 147 147 147 147 117 65 65
81 115 144 147
68 68 68 56 30 17 4 0
0 9 40 88 123 81 85 80 70 68 52 60
51 11 0 0 0 0 14 14 0 0 0 0
0 0 0 0 5 30 108 146 169 106 96 126
128 139 160 159 183 159 153 158 150 157 152 147
147 147 147 147 152 166 115 68 68 68 68 68
71 90 127 146 147 147 147 147 147 147 147 147
147 147 147 147 147 147 147 147 147 147 147 147
147 142 71 68 71 87 133 147
56 66 68 33
4 0 0 0 0 20 57 124 144 92 66 68
68 68 52 21 34 7 0 0 0 0 0 0
0 0 0 0 0 0 1 3 49 90 145 154
149 158 143 141 144 153 150 152 157 149 161 156
157 178 160 148 147 147 150 156 152 150 85 68
73 80 75 86 121 143 147 147 147 136 124 125
144 147 147 147 147 147 147 147 147 147 147 147
145 142 147 143 143 147 133 94 113 125 107 109
35 52 59 10 0 0 0 0 2 45 85 139
147 101 67 68 68 68 68 51 16 3 0 0
0 0 0 0 0 0 0 0 0 1 10 19
81 126 161 154 153 174 155 147 135 151 146 147
147 154 165 147 151 161 156 148 147 147 154 165
151 147 98 71 90 116 106 131 147 147 147 148
153 127 132 145 147 147 147 147 147 147 147 147
147 147 146 137 128 127 144 128 133 147 146 133
137 132 81 67
54 37 15 0 0 0 0 0
6 61 91 143 136 39 42 61 68 68 68 61
12 0 0 0 0 0 0 0 0 0 0 0
0 23 53 95 110 103 142 144 147 110 113 143
139 136 135 135 109 132 154 160 147 142 121 121
146 147 147 147 147 136 99 72 98 142 146 147
147 147 153 166 166 153 119 130 147 147 134 119
132 143 146 147 147 147 146 132 129 137 144 118
92 124 145 113 92 87 71 69
68 57 23 0
0 0 0 0 18 79 97 142 115 32 17 26
53 63 51 43 6 0 0 0 0 0 0 0
0 0 0 0 1 33 88 126 142 125 116 106
123 82 111 151 148 146 174 158 141 138 159 206
158 146 131 127 164 152 147 147 147 141 117 77
101 145 147 147 147 147 151 161 156 149 98 113
147 147 138 80 85 105 134 146 147 147 147 145
146 147 140 108 82 122 147 133 88 66 65 84
68 68 67 24 0 0 0 9 92 143 143 128
85 68 38 7 4 22 55 27 1 0 0 0
0 0 0 0 0 0 0 0 0 17 62 69
114 147 87 70 83 104 178 166 154 153 226 211
165 180 177 196 163 167 171 149 159 151 147 147
147 147 123 88 127 147 147 147 147 147 147 160
164 101 90 104 147 134 102 68 63 84 129 147
147 147 147 147 147 147 136 99 81 126 147 147
138 104 68 75
68 68 62 6 0 0 39 79
142 147 143 87 61 54 58 59 45 28 12 25
36 27 5 0 0 0 0 0 0 0 0 0
0 8 10 43 56 55 56 93 148 142 152 151
144 89 5 86 180 156 147 147 147 152 180 195
176 173 149 147 147 148 146 115 151 147 147 147
147 147 145 159 173 102 82 95 126 132 123 67
64 100 137 147 147 134 133 140 109 101 119 95
66 107 144 143 145 133 98 98
68 68 39 0
0 5 78 128 147 147 139 79 54 32 28 38
50 56 38 19 20 31 9 0 0 0 0 0
0 0 0 0 0 12 11 19 26 32 47 105
153 157 149 152 110 34 0 52 162 159 155 147
148 150 158 176 158 179 156 149 155 171 176 156
167 147 147 147 147 143 128 130 131 73 103 129
137 125 88 66 66 104 131 140 134 98 94 115
83 68 92 84 68 98 117 115 122 125 111 107
68 59 5 0 7 42 92 135 147 144 118 72
68 59 38 26 8 18 38 55 38 13 1 0
0 0 0 0 0 0 0 0 0 5 10 12
9 20 68 121 148 153 153 153 59 4 0 37
135 170 182 186 188 193 193 208 211 155 160 149
163 211 213 156 157 147 147 147 125 96 77 80
82 65 116 145 123 94 64 62 51 53 65 75
76 55 37 29 25 27 38 47 59 67 113 101
92 85 83 93
54 34 0 0 9 56 103 138
147 124 88 68 68 68 62 41 3 1 8 19
29 9 0 0 0 0 0 0 0 0 0 0
0 0 4 31 37 47 113 160 147 146 159 105
24 0 0 58 172 164 161 166 165 168 181 180
211 192 173 167 157 167 164 150 165 147 147 147
105 70 67 68 68 65 88 92 80 68 48 65
49 14 14 17 20 15 7 2 2 3 7 11
18 31 83 81 107 87 106 128
1 1 0 4
41 113 137 147 134 70 68 68 68 68 68 53
8 0 0 0 0 0 0 0 0 0 0 0
0 0 0 0 0 9 13 52 67 91 136 110
115 94 117 141 78 16 0 67 191 155 147 146
120 116 140 147 162 186 174 190 149 147 101 101
121 131 146 147 88 69 69 68 65 64 66 67
65 64 46 66 54 12 0 0 0 0 0 0
0 0 0 0 0 0 2 28 63 65 104 139
0 0 0 70 136 145 147 138 84 68 68 68
68 68 68 63 21 2 0 0 0 0 0 0
0 0 0 0 0 0 0 0 4 26 53 68
85 129 106 74 68 68 74 122 113 35 0 70
214 203 188 142 95 101 109 138 155 147 160 178
152 143 124 74 67 100 119 146 105 72 68 68
67 62 68 68 65 64 52 61 56 18 0 0
0 0 0 0 0 0 0 0 0 0 0 0
25 57 69 97
0 1 12 76 94 102 116 106
70 53 56 58 62 66 63 51 15 1 0 0
0 0 0 0 0 0 0 0 0 0 0 3
20 54 69 75 131 142 92 70 68 68 77 127
135 56 11 169 229 219 210 194 145 144 147 147
147 147 147 147 131 100 69 79 111 99 96 143
86 68 68 68 68 60 53 60 63 64 62 47
52 25 4 0 0 0 0 0 0 0 0 0
0 0 0 0 1 13 45 61
0 5 45 77
105 106 86 79 66 26 22 28 34 46 39 21
20 21 9 1 0 0 0 0 0 0 0 0
0 0 1 10 36 73 98 124 166 127 111 83
68 68 79 131 145 89 71 186 201 152 151 158
122 103 119 139 147 147 146 135 88 81 72 101
132 113 120 147 112 73 68 65 66 68 24 37
61 65 65 45 44 22 6 0 0 0 0 0
0 0 0 0 0 0 0 0 0 0 11 36
0 12 67 68 95 130 107 62 28 4 6 17
17 13 22 39 101 116 55 31 5 0 0 0
0 0 0 0 0 0 4 22 69 124 175 222
208 157 166 140 87 81 107 139 147 149 141 201
200 135 144 147 84 20 41 114 147 145 118 66
91 130 119 141 146 124 92 127 135 95 59 61
57 65 4 24 67 67 60 26 10 3 1 0
0 0 0 0 0 0 0 0 0 0 0 0
0 0 0 4
0 6 34 22 29 44 37 19
14 42 57 51 50 49 59 66 111 140 92 57
22 0 0 0 0 0 0 0 0 13 40 53
88 160 200 237 230 212 221 202 135 126 140 148
158 155 133 162 209 162 170 148 126 102 108 135
147 100 60 42 122 147 144 147 147 143 114 86
131 97 41 21 20 22 1 9 27 24 19 6
0 0 0 0 0 0 0 0 0 0 0 0
0 0 0 0 0 0 0 0
0 0 7 33
50 43 25 25 68 125 83 64 63 95 131 105
111 142 120 64 28 2 0 0 0 0 0 0
0 46 78 111 129 183 212 239 236 221 186 198
210 196 168 162 182 163 153 161 207 208 187 167
168 150 147 142 132 116 89 127 147 147 147 147
147 147 126 67 73 79 51 7 0 0 0 0
0 0 0 0 0 0 0 0 0 0 0 0
0 0 0 0 0 0 0 0 0 0 0 0
44 54 63 87 91 77 67 64 84 133 101 68
68 69 80 81 120 141 97 69 25 3 0 0
0 0 0 0 14 115 130 153 159 158 168 194
235 209 151 154 177 191 179 154 174 173 188 157
165 186 164 164 185 153 142 90 76 132 134 147
147 147 147 147 147 147 137 79 57 49 39 7
0 0 0 0 0 0 0 0 0 0 0 0
0 0 0 0 0 0 0 0 0 0 0 0
0 0 0 0
72 65 74 132 139 101 73 68
108 115 95 68 68 68 104 118 137 129 90 76
22 1 0 0 0 0 0 0 37 128 159 159
168 149 133 134 197 194 150 161 204 189 187 158
155 168 163 164 149 146 137 146 152 148 146 105
90 143 143 145 147 147 147 147 146 135 105 69
43 17 6 0 0 0 0 0 0 0 0 0
0 0 0 0 0 0 0 0 0 0 0 0
0 0 0 0 0 0 0 0
89 68 98 136
142 119 114 119 110 74 67 66 67 68 97 109
126 116 113 68 16 0 0 0 0 0 0 5
44 84 149 148 147 147 140 117 138 152 147 166
221 173 155 147 147 161 182 152 143 108 91 135
170 155 147 140 133 147 138 111 123 144 147 145
129 87 72 44 6 0 0 0 0 0 0 0
0 0 0 0 0 0 0 0 0 0 0 0
0 0 0 0 0 0 0 0 0 0 0 0
86 68 78 90 99 112 131 130 89 68 65 65
66 67 71 74 81 90 116 71 20 0 0 0
0 0 0 12 48 77 135 143 147 147 147 160
149 147 147 159 208 156 149 147 147 146 159 148
149 108 92 142 158 151 147 147 147 147 143 128
99 104 141 124 91 68 48 16 0 0 0 0
0 0 0 0 0 0 0 0 0 0 0 0
0 0 0 0 0 0 0 0 0 0 0 0
0 0 0 1
73 68 66 65 68 76 74 66
64 65 64 64 66 68 67 64 70 119 147 126
25 0 0 0 0 0 0 35 84 111 133 134
146 147 147 147 147 147 147 147 149 148 147 147
147 128 97 155 165 135 104 147 147 147 147 147
147 147 147 147 145 110 46 62 67 41 9 0
0 0 0 0 0 0 0 0 0 0 0 0
0 0 0 0 0 0 0 0 0 0 0 0
0 0 0 0 0 0 0 21
66 65 64 66
68 67 66 65 66 68 66 66 68 68 64 63
81 123 121 146 72 12 2 0 0 0 0 39
118 147 147 147 147 147 147 147 147 147 147 154
170 148 147 147 103 84 120 152 148 138 144 147
147 145 139 144 147 147 147 147 147 147 129 41
30 6 0 0 0 0 0 0 0 0 0 0
0 0 0 0 0 0 0 0 0 0 0 0
0 0 0 0 0 0 0 0 5 24 44 46
67 65 64 66 68 66 64 66 68 68 68 68
68 66 64 64 85 114 105 141 91 39 9 1
0 0 0 27 111 147 151 154 142 137 144 147
147 147 147 153 195 149 147 141 94 92 147 139
126 147 136 147 147 144 124 136 147 147 147 144
135 134 130 67 34 0 0 0 0 0 0 0
0 0 0 0 0 0 0 0 0 0 0 0
0 0 0 0 0 0 0 0 0 0 0 0
15 48 57 64
67 66 64 67 68 66 64 66
69 68 68 68 68 66 64 64 97 132 130 116
76 61 27 5 0 0 0 13 99 147 154 153
113 84 113 147 147 147 147 148 164 147 149 144
106 116 147 141 138 160 119 147 147 147 132 138
147 147 145 130 95 88 125 73 37 2 0 0
0 0 0 0 0 0 0 0 0 0 0 0
0 0 2 7 3 0 0 0 0 0 0 0
0 0 0 3 18 41 42 59
68 67 64 67
68 66 64 65 66 66 65 67 68 67 64 65
120 141 99 86 105 99 67 21 0 0 0 2
56 147 128 89 52 8 21 124 147 151 171 157
147 147 154 164 151 146 147 147 147 169 148 147
147 147 147 147 127 142 126 80 60 56 69 78
57 27 7 0 0 0 0 0 0 0 0 0
0 0 0 0 0 0 21 42 25 0 0 0
0 0 0 0 0 0 2 36 40 31 39 56
67 66 64 67 69 67 65 65 68 63 64 66
67 66 64 65 96 106 78 102 138 135 97 45
1 0 0 0 13 116 91 66 38 2 25 134
147 149 174 163 154 147 155 161 150 147 147 147
147 187 168 147 147 145 142 146 121 102 82 59
98 86 54 58 66 41 10 0 0 0 0 0
0 0 0 0 0 0 0 0 0 0 17 38
37 0 0 0 0 0 0 0 0 8 15 21
53 53 60 77
65 64 64 72 95 131 102 76
116 64 64 68 67 63 63 64 66 76 90 130
84 106 131 85 18 0 0 0 0 14 66 68
55 15 82 147 147 147 172 171 176 149 158 155
148 147 147 158 170 186 170 147 146 106 30 101
122 62 41 70 132 90 64 48 49 7 0 0
0 0 0 0 0 0 0 0 0 0 0 0
0 0 2 39 42 0 0 0 0 0 0 0
10 46 54 2 52 67 117 143
68 68 66 72
95 141 130 104 69 65 65 66 66 63 64 66
66 64 64 65 64 70 81 72 65 7 0 0
0 0 14 32 37 45 99 143 147 147 147 166
176 150 157 152 147 147 147 150 154 147 147 147
147 132 55 19 3 1 4 30 76 40 28 27
26 29 38 12 0 0 0 0 0 0 0 0
0 0 0 0 0 0 20 46 5 0 0 0
0 0 4 9 38 60 34 0 75 108 141 143
68 68 68 74 98 138 144 135 75 66 64 63
63 63 65 66 66 64 63 64 64 65 68 68
65 8 0 0 0 0 0 0 2 23 50 92
137 152 151 159 151 147 148 148 147 147 147 147
147 147 147 147 147 146 121 57 1 0 0 6
32 44 55 63 63 66 68 34 0 0 0 0
0 0 0 0 0 0 0 0 0 3 26 44
0 0 0 5 12 10 19 28 47 51 38 3
90 141 154 158
68 68 68 66 70 88 99 92
69 68 66 63 63 63 65 65 65 66 67 66
74 96 98 75 35 2 0 0 0 0 0 0
0 0 0 3 62 132 157 161 147 147 147 147
147 147 147 147 147 147 147 147 147 147 147 109
11 0 0 0 20 51 68 68 68 68 68 60
2 0 0 0 0 0 0 0 0 0 0 7
24 39 50 36 0 0 3 67 106 72 50 60
66 43 80 71 82 138 151 156
68 68 67 64
65 69 72 70 68 68 67 63 63 64 66 67
66 67 68 68 82 122 132 76 8 0 0 0
0 0 0 0 0 0 0 0 12 62 132 144
144 147 153 149 147 147 147 147 147 147 147 147
147 147 143 96 32 1 0 0 4 21 63 68
68 68 68 67 12 0 0 0 0 0 0 0
0 0 0 7 19 29 28 13 0 1 15 57
120 97 68 98 85 62 74 77 71 95 105 139
75 68 63 64 67 68 68 68 68 68 67 64
64 65 66 68 65 65 65 68 73 105 106 32
0 0 0 0 0 0 0 0 0 0 0 0
0 5 38 79 101 143 179 147 142 147 147 147
147 147 147 147 147 147 145 92 68 36 1 0
0 0 21 67 68 68 68 68 27 0 0 0
0 0 0 0 0 0 0 0 0 0 0 0
0 26 48 52 87 102 71 88 77 66 63 58
59 55 53 81
124 96 65 67 68 68 68 68
68 68 68 68 68 68 67 67 64 63 63 66
66 63 25 3 0 0 0 0 0 0 0 0
0 0 0 0 0 0 26 53 102 131 113 82
100 135 147 147 157 156 146 147 146 145 147 99
93 121 27 2 0 0 0 36 62 68 68 68
39 3 0 0 0 0 0 0 0 0 0 0
0 9 23 33 48 81 86 80 69 64 50 44
31 19 7 5 5 3 1 5
121 112 68 68
68 68 68 68 68 68 68 68 69 68 67 66
64 63 63 63 57 33 3 0 0 0 0 0
0 0 0 0 0 0 0 0 0 1 29 54
65 91 72 63 91 133 147 149 150 143 139 124
120 126 145 95 71 74 35 5 0 0 0 10
39 66 68 68 49 13 0 0 0 0 0 0
0 0 0 2 8 40 85 114 79 97 93 69
43 25 15 6 0 0 0 0 0 0 0 7
80 74 68 68 68 67 68 68 68 68 69 71
68 67 65 64 64 63 63 63 34 5 0 0
0 0 0 0 0 0 0 0 0 0 0 1
17 29 28 27 34 59 60 63 93 149 163 164
151 130 90 50 34 39 58 33 7 10 6 1
0 0 0 0 8 47 66 68 49 12 0 0
0 0 3 15 24 36 55 41 59 111 132 120
49 22 12 3 1 0 0 0 0 0 0 0
0 0 0 4
73 68 68 68 68 65 66 68
68 68 71 101 94 65 63 63 64 64 63 52
10 0 0 0 0 0 0 0 0 0 0 0
0 0 0 34 96 112 98 80 52 59 81 107
124 176 186 169 181 150 88 57 50 47 47 20
0 0 0 0 0 0 0 0 1 19 51 50
21 2 0 0 0 1 30 50 62 98 126 72
70 86 65 39 10 0 0 0 0 0 0 0
0 0 0 0 0 0 0 0
70 68 68 67
65 63 66 68 68 65 67 86 89 64 81 69
63 64 50 18 0 0 0 0 0 0 0 0
0 0 0 0 0 0 0 58 131 139 143 140
128 118 125 155 164 175 193 193 220 181 102 65
60 59 58 29 0 0 0 0 0 0 0 0
0 3 15 14 3 0 0 0 8 37 57 64
76 123 133 48 24 21 9 2 0 0 0 0
0 0 0 0 0 0 0 0 0 0 0 0
68 68 68 63 63 65 67 68 65 64 64 65
65 78 123 87 64 48 2 0 0 0 0 0
0 0 0 0 0 0 0 0 0 0 0 30
60 104 158 182 198 94 75 74 83 78 79 69
66 61 40 10 3 5 4 2 0 0 0 0
0 0 0 0 0 0 0 0 0 0 1 22
53 64 64 64 60 51 7 0 0 0 0 0
0 0 0 0 0 0 0 0 0 0 0 0
0 0 0 0
68 68 66 64 65 93 91 73
68 65 64 67 68 94 91 67 43 12 0 0
0 0 0 0 0 0 0 0 0 0 0 0
0 0 0 0 1 14 54 64 48 27 24 22
15 5 0 0 0 0 0 0 0 0 0 0
0 0 0 0 0 0 0 0 1 3 4 5
10 19 42 64 65 61 48 32 7 0 0 0
0 0 0 0 0 0 0 0 0 0 0 0
0 0 0 0 0 0 0 0
76 71 67 73
69 105 104 76 67 68 69 66 67 69 69 56
15 1 0 0 0 0 0 0 0 0 0 0
0 0 0 0 0 0 0 0 0 0 0 0
0 0 0 0 0 0 0 0 0 0 0 0
0 0 0 0 0 0 0 0 1 0 0 1
9 24 21 16 41 53 66 63 54 38 16 3
0 0 0 0 0 0 0 0 0 0 0 0
0 0 0 0 0 0 0 0 0 0 0 0
92 91 72 102 75 75 70 65 64 105 105 66
64 66 52 22 1 0 0 0 0 0 0 0
0 0 0 0 0 0 0 0 0 0 0 0
0 0 0 0 0 0 0 0 0 0 0 0
0 0 0 0 0 0 0 0 0 0 2 12
29 18 10 13 24 24 14 5 55 56 42 22
11 1 0 0 0 0 0 0 0 0 0 0
0 0 0 0 0 0 0 0 0 0 0 0
0 0 0 0
